<svg xmlns="http://www.w3.org/2000/svg" height="40" viewBox="0 -960 960 960" width="40"><path d="M314.615-619.744q-10.679 0-17.903-7.263-7.224-7.263-7.224-18 0-10.736 7.224-17.864t17.903-7.128h490.257q10.679 0 17.903 7.263 7.224 7.263 7.224 17.999 0 10.737-7.224 17.865-7.224 7.128-17.903 7.128H314.615Zm0 164.871q-10.679 0-17.903-7.262-7.224-7.263-7.224-18 0-10.736 7.224-17.864t17.903-7.128h490.257q10.679 0 17.903 7.262 7.224 7.263 7.224 18 0 10.736-7.224 17.864t-17.903 7.128H314.615Zm0 164.872q-10.679 0-17.903-7.263-7.224-7.263-7.224-17.999 0-10.737 7.224-17.865 7.224-7.128 17.903-7.128h490.257q10.679 0 17.903 7.263 7.224 7.263 7.224 18 0 10.736-7.224 17.864t-17.903 7.128H314.615ZM158.178-616.667q-11.998 0-20.088-8.117-8.089-8.116-8.089-20.115 0-11.998 8.116-20.088 8.117-8.089 20.115-8.089 11.999 0 20.088 8.116 8.09 8.117 8.09 20.115 0 11.999-8.117 20.088-8.116 8.09-20.115 8.09Zm0 164.872q-11.998 0-20.088-8.117-8.089-8.117-8.089-20.115 0-11.998 8.116-20.088 8.117-8.09 20.115-8.09 11.999 0 20.088 8.117 8.09 8.117 8.09 20.115 0 11.998-8.117 20.088-8.116 8.09-20.115 8.09Zm0 164.871q-11.998 0-20.088-8.116-8.089-8.117-8.089-20.115 0-11.999 8.116-20.088 8.117-8.09 20.115-8.09 11.999 0 20.088 8.117 8.09 8.116 8.09 20.115 0 11.998-8.117 20.088-8.116 8.089-20.115 8.089Z"/></svg>