<svg xmlns="http://www.w3.org/2000/svg" height="40" viewBox="0 -960 960 960" width="40"><path d="M480-90q-7.82 0-14.282-4.154-6.461-4.154-9.64-12.539L264.155-668.486q-2.949-8.744 3.5-16.051 6.449-7.308 15.859-5.103l95.819 22.692 75.54-51.77v-110.154q0-33.461 24.833-57.294T540-909.999q34.487 0 56.346 19.025 21.859 19.026 25.551 50.411 2.205 13.538-5.154 22.179-7.359 8.64-20.025 8.64-9.436 0-15.564-5-6.128-4.999-7.307-14.486-1.487-16.155-10.128-24.835-8.642-8.679-23.719-8.679-14.129 0-24.501 10.269-10.372 10.27-10.372 23.603v110.154l75.54 51.77 95.819-22.692q9.41-2.205 15.667 5.103 6.256 7.307 3.308 16.051L503.922-107.693q-3.179 9.052-9.64 13.372-6.462 4.32-14.282 4.32Zm25.127-174.431 122.079-362.57-58.026 13.949-64.053-44.693v393.314Zm-50.254 0v-393.314l-64.053 45.693-59.411-16 123.464 363.621Z"/></svg>